<?xml version="1.0" standalone="no"?>
<!DOCTYPE svg PUBLIC "-//W3C//DTD SVG 20010904//EN"
 "http://www.w3.org/TR/2001/REC-SVG-20010904/DTD/svg10.dtd">
<svg version="1.0" xmlns="http://www.w3.org/2000/svg"
 width="458.000000pt" height="334.000000pt" viewBox="0 0 458.000000 334.000000"
 preserveAspectRatio="xMidYMid meet">

<g transform="translate(0.000000,334.000000) scale(0.100000,-0.100000)"
fill="#000000" stroke="none">
<path d="M1367 2926 c-48 -18 -62 -29 -81 -70 -14 -30 -16 -101 -16 -573 0
-600 -2 -583 69 -630 l34 -23 912 0 912 0 34 23 c72 48 70 28 67 642 -3 521
-4 551 -22 578 -44 65 11 62 -976 64 -731 2 -902 0 -933 -11z m1837 -98 c14
-20 16 -89 16 -550 0 -515 -1 -529 -20 -548 -20 -20 -33 -20 -915 -20 -882 0
-895 0 -915 20 -19 19 -20 33 -20 548 0 461 2 530 16 550 l15 22 904 0 904 0
15 -22z"/>
<path d="M1480 2711 c-15 -30 -13 -412 3 -434 11 -16 33 -17 217 -15 l205 3 0
230 0 230 -207 3 c-197 2 -208 1 -218 -17z m350 -216 l0 -155 -135 0 -135 0 0
155 0 155 135 0 135 0 0 -155z"/>
<path d="M2332 2638 c-16 -16 -15 -33 4 -52 13 -14 61 -16 370 -16 342 0 355
1 374 20 16 16 18 25 10 40 -10 19 -22 20 -378 20 -273 0 -371 -3 -380 -12z"/>
<path d="M2336 2404 c-9 -8 -16 -21 -16 -28 0 -34 19 -36 392 -36 356 0 368 1
378 20 8 15 6 24 -10 40 -19 19 -32 20 -374 20 -309 0 -357 -2 -370 -16z"/>
<path d="M1481 2102 c-7 -14 -6 -25 5 -40 l15 -22 784 0 784 0 15 22 c11 15
12 26 5 40 -9 17 -42 18 -804 18 -762 0 -795 -1 -804 -18z"/>
<path d="M1486 1888 c-11 -15 -12 -26 -5 -40 9 -17 42 -18 804 -18 746 0 795
1 803 18 10 19 5 43 -12 54 -6 4 -363 8 -793 8 l-782 0 -15 -22z"/>
<path d="M865 2529 c-74 -40 -189 -123 -253 -184 -430 -401 -295 -914 323
-1230 182 -93 404 -167 644 -215 l136 -27 5 -217 5 -216 28 -27 c22 -23 36
-28 75 -28 45 0 65 12 397 234 193 128 358 243 367 255 27 32 32 79 14 115
-13 23 -107 91 -376 271 -330 220 -363 240 -402 240 -45 0 -78 -19 -97 -57 -7
-13 -11 -83 -11 -179 l0 -157 -48 7 c-79 10 -317 74 -420 112 -315 117 -539
279 -623 449 -31 64 -34 77 -34 165 0 86 3 101 32 162 44 92 154 206 281 288
55 36 107 77 116 92 61 101 -51 206 -159 147z"/>
<path d="M3584 2541 c-57 -25 -81 -105 -48 -159 9 -15 61 -56 116 -92 127 -82
237 -196 281 -288 29 -61 32 -76 32 -162 0 -88 -3 -101 -33 -163 -66 -134
-220 -267 -427 -368 -156 -76 -255 -112 -444 -160 -84 -22 -161 -44 -171 -49
-19 -10 -50 -68 -50 -95 0 -25 27 -72 52 -89 34 -24 94 -19 240 18 408 105
744 292 914 509 179 228 200 472 61 709 -58 101 -198 239 -324 322 -105 69
-154 86 -199 67z"/>
</g>
</svg>
