<?xml version="1.0" standalone="no"?>
<!DOCTYPE svg PUBLIC "-//W3C//DTD SVG 20010904//EN"
 "http://www.w3.org/TR/2001/REC-SVG-20010904/DTD/svg10.dtd">
<svg version="1.0" xmlns="http://www.w3.org/2000/svg"
 width="512.000000pt" height="512.000000pt" viewBox="0 0 512.000000 512.000000"
 preserveAspectRatio="xMidYMid meet">

<g transform="translate(0.000000,512.000000) scale(0.100000,-0.100000)"
fill="#000000" stroke="none">
<path d="M340 5109 c-118 -23 -245 -123 -295 -232 -36 -78 -45 -141 -45 -313
0 -146 1 -154 24 -180 18 -21 32 -28 61 -28 29 0 43 7 61 28 23 26 24 33 24
186 0 186 14 241 78 303 65 64 117 77 302 77 153 0 160 1 186 24 21 18 28 32
28 61 0 29 -7 43 -28 61 -26 23 -32 24 -189 23 -89 -1 -182 -5 -207 -10z"/>
<path d="M1654 5096 c-21 -18 -28 -32 -28 -61 0 -29 7 -43 28 -61 l27 -24 879
0 879 0 27 24 c39 33 39 89 0 122 l-27 24 -879 0 -879 0 -27 -24z"/>
<path d="M4384 5096 c-39 -33 -39 -89 0 -122 26 -23 33 -24 186 -24 186 0 241
-14 303 -78 64 -65 77 -117 77 -302 0 -153 1 -160 24 -186 33 -39 89 -39 122
0 23 26 24 34 24 180 0 84 -5 177 -10 206 -32 170 -170 308 -339 340 -29 5
-123 10 -207 10 -146 0 -154 -1 -180 -24z"/>
<path d="M444 4761 c-83 -38 -108 -98 -102 -254 3 -94 6 -109 25 -129 31 -30
84 -30 118 2 24 22 25 29 25 127 l0 103 103 0 c98 0 105 1 127 25 32 34 32 87
2 118 -20 20 -34 22 -140 25 -98 2 -124 -1 -158 -17z"/>
<path d="M1840 4767 c-52 -26 -60 -89 -18 -134 l21 -23 717 0 717 0 23 25 c32
34 32 87 2 118 l-23 22 -707 2 c-554 2 -712 0 -732 -10z"/>
<path d="M4400 4767 c-52 -26 -60 -89 -18 -134 20 -21 31 -23 125 -23 l103 0
0 -103 c0 -98 1 -105 25 -127 34 -32 87 -32 118 -2 19 20 22 35 25 129 6 156
-19 216 -102 254 -50 23 -235 27 -276 6z"/>
<path d="M2405 4430 c-363 -42 -667 -225 -788 -473 -56 -115 -67 -172 -74
-369 l-6 -178 -59 0 c-87 0 -129 -25 -165 -97 -27 -55 -28 -64 -28 -198 l1
-140 42 -87 c51 -105 126 -190 211 -238 l60 -35 1 -75 c1 -215 58 -353 206
-496 l74 -71 0 -64 0 -64 -43 -26 c-109 -69 -217 -114 -389 -164 -133 -40
-176 -59 -418 -192 -91 -50 -195 -105 -231 -122 -82 -39 -156 -102 -180 -156
-25 -53 -27 -259 -4 -326 22 -64 67 -113 133 -146 l57 -28 1755 0 1755 0 57
28 c66 33 111 82 133 146 23 67 21 273 -4 326 -25 55 -98 117 -189 160 -41 20
-139 72 -217 115 -229 126 -296 157 -426 195 -150 44 -226 74 -316 124 -120
66 -113 58 -113 130 l0 64 78 76 c78 76 133 156 165 241 22 59 40 199 35 266
l-5 53 65 38 c126 73 233 228 252 363 28 196 -9 342 -97 384 -19 9 -59 16 -92
16 l-58 0 -6 178 c-7 197 -18 254 -74 369 -136 278 -487 464 -903 478 -69 2
-156 0 -195 -5z m416 -194 c133 -30 241 -75 335 -138 115 -77 184 -169 227
-303 21 -66 22 -87 22 -360 -1 -279 -2 -296 -30 -440 -26 -135 -29 -172 -31
-370 -2 -305 -7 -317 -202 -511 -65 -65 -151 -162 -189 -214 -80 -108 -135
-164 -176 -179 -37 -14 -397 -14 -434 0 -41 15 -96 71 -176 179 -38 52 -124
149 -189 214 -195 195 -200 206 -203 511 -1 197 -4 236 -31 370 -27 144 -29
161 -29 445 0 259 2 302 18 350 59 175 159 284 342 371 224 106 493 133 746
75z m-1291 -1016 c13 -13 20 -33 20 -59 0 -22 11 -106 25 -187 14 -81 23 -149
20 -152 -9 -10 -85 78 -111 129 -28 57 -40 148 -30 233 7 51 10 56 32 56 13 0
33 -9 44 -20z m2136 -36 c10 -82 -3 -179 -32 -235 -24 -49 -101 -135 -111
-126 -2 3 3 45 12 94 9 48 23 135 30 191 15 109 26 131 72 132 19 0 22 -7 29
-56z m-1508 -1543 c25 -24 70 -55 101 -70 54 -25 62 -26 279 -29 249 -4 291 3
376 59 26 18 71 61 99 97 l52 64 5 -137 c5 -135 5 -137 33 -161 31 -26 57 -30
90 -12 38 20 46 40 47 116 0 39 3 72 8 72 4 0 30 -14 59 -30 l51 -29 7 -73
c15 -157 -27 -385 -91 -494 -30 -52 -93 -117 -137 -144 -31 -19 -53 -20 -577
-20 -524 0 -546 1 -577 20 -44 27 -107 92 -137 144 -64 109 -106 337 -91 494
l7 73 51 29 c29 16 55 30 60 30 4 0 7 -33 7 -73 0 -60 4 -77 20 -95 28 -30 68
-38 99 -21 43 24 51 54 51 189 l1 125 31 -40 c18 -22 52 -60 76 -84z m-575
-258 c10 -198 47 -339 117 -456 22 -36 40 -68 40 -71 0 -4 -198 -6 -440 -6
-483 0 -496 1 -519 57 -7 18 -11 65 -9 123 l3 93 45 30 c25 16 113 65 195 109
83 44 200 106 260 138 91 49 247 107 291 109 7 1 13 -44 17 -126z m2097 91
c41 -13 163 -71 270 -130 107 -58 226 -122 265 -141 38 -20 85 -47 102 -61
l33 -24 0 -95 c0 -109 -14 -145 -61 -162 -33 -11 -909 -17 -909 -5 0 3 18 35
40 71 70 117 107 258 117 456 l6 128 31 -7 c17 -3 65 -17 106 -30z"/>
<path d="M2478 4089 c-151 -17 -279 -80 -394 -194 -133 -131 -192 -262 -201
-445 -6 -132 12 -226 66 -335 87 -174 234 -299 421 -357 111 -34 284 -32 393
4 237 79 413 272 463 509 11 53 14 104 11 179 -9 183 -68 313 -202 446 -150
150 -345 217 -557 193z m222 -186 c81 -22 157 -69 225 -138 230 -234 178 -622
-106 -789 -90 -54 -152 -71 -259 -71 -67 0 -111 6 -149 19 -205 71 -344 244
-358 448 -7 98 10 184 52 268 112 222 354 329 595 263z"/>
<path d="M2777 3659 c-14 -8 -120 -137 -303 -368 -2 -2 -33 24 -69 58 -53 49
-72 61 -98 61 -49 -1 -87 -40 -87 -91 0 -27 201 -235 235 -243 13 -3 35 -2 49
4 15 5 101 104 210 241 208 259 215 273 155 323 -32 27 -62 32 -92 15z"/>
<path d="M54 3490 c-57 -23 -54 22 -54 -932 l0 -877 24 -27 c33 -39 89 -39
122 0 l24 27 0 879 0 879 -22 25 c-26 29 -63 39 -94 26z"/>
<path d="M5004 3490 c-57 -23 -54 22 -54 -932 l0 -877 24 -27 c33 -39 89 -39
122 0 l24 27 0 879 0 879 -22 25 c-26 29 -63 39 -94 26z"/>
<path d="M390 3317 c-51 -26 -50 -11 -47 -769 l2 -707 22 -23 c31 -30 84 -30
118 2 l25 23 0 717 0 717 -22 21 c-30 27 -67 35 -98 19z"/>
<path d="M4670 3323 c-8 -3 -25 -15 -37 -26 l-23 -20 0 -717 0 -717 25 -23
c34 -32 87 -32 118 -2 l22 23 0 719 c0 706 0 720 -20 739 -22 22 -62 33 -85
24z"/>
<path d="M54 760 c-48 -19 -54 -44 -54 -206 0 -83 5 -176 10 -205 32 -169 170
-307 340 -339 29 -5 122 -10 206 -10 146 0 154 1 180 24 39 33 39 89 0 122
-26 23 -33 24 -186 24 -185 0 -237 13 -302 77 -64 62 -78 117 -78 303 0 151
-1 160 -22 184 -26 29 -63 39 -94 26z"/>
<path d="M390 757 c-40 -20 -50 -53 -50 -167 1 -203 58 -255 273 -248 94 3
109 6 129 25 30 31 30 84 -2 118 -22 24 -29 25 -127 25 l-103 0 0 103 c0 94
-2 105 -22 125 -30 27 -67 35 -98 19z"/>
<path d="M4670 763 c-8 -3 -25 -15 -37 -26 -21 -19 -23 -29 -23 -124 l0 -103
-103 0 c-98 0 -105 -1 -127 -25 -32 -34 -32 -87 -2 -118 20 -20 35 -22 133
-25 128 -4 182 10 223 59 38 45 48 93 44 212 -2 90 -6 109 -23 126 -22 22 -62
33 -85 24z"/>
<path d="M5004 760 c-48 -19 -54 -44 -54 -212 0 -184 -14 -239 -78 -301 -65
-64 -117 -77 -302 -77 -153 0 -160 -1 -186 -24 -21 -18 -28 -32 -28 -61 0 -29
7 -43 28 -61 26 -23 34 -24 180 -24 84 0 177 5 206 10 170 32 308 170 340 339
5 29 10 123 10 207 0 144 -1 154 -22 178 -26 29 -63 39 -94 26z"/>
<path d="M1820 485 c-32 -34 -32 -87 -2 -118 l23 -22 719 0 719 0 23 22 c30
31 30 84 -2 118 l-23 25 -717 0 -717 0 -23 -25z"/>
<path d="M1654 146 c-21 -18 -28 -32 -28 -61 0 -29 7 -43 28 -61 l27 -24 879
0 879 0 27 24 c39 33 39 89 0 122 l-27 24 -879 0 -879 0 -27 -24z"/>
</g>
</svg>
